<?xml version="1.0" encoding="UTF-8" standalone="no"?>
<svg
   viewBox="0 0 99.999998 100"
   width="100"
   height="100"
   version="1.1"
   id="svg214"
   sodipodi:docname="logo_v2_100sq_Red.svg"
   inkscape:version="1.2.1 (9c6d41e410, 2022-07-14)"
   xmlns:inkscape="http://www.inkscape.org/namespaces/inkscape"
   xmlns:sodipodi="http://sodipodi.sourceforge.net/DTD/sodipodi-0.dtd"
   xmlns="http://www.w3.org/2000/svg"
   xmlns:svg="http://www.w3.org/2000/svg">
  <sodipodi:namedview
     id="namedview216"
     pagecolor="#ffffff"
     bordercolor="#000000"
     borderopacity="0.25"
     inkscape:showpageshadow="false"
     inkscape:pageopacity="0.0"
     inkscape:pagecheckerboard="false"
     inkscape:deskcolor="#d1d1d1"
     showgrid="false"
     borderlayer="true"
     showborder="true"
     inkscape:zoom="5.8012347"
     inkscape:cx="26.890827"
     inkscape:cy="57.660139"
     inkscape:window-width="1920"
     inkscape:window-height="1001"
     inkscape:window-x="-9"
     inkscape:window-y="-9"
     inkscape:window-maximized="1"
     inkscape:current-layer="g212" />
  <desc
     id="desc188">logo_v2.dxf - scale = 1.000000, origin = (0.000000, 0.000000), method = manual</desc>
  <defs
     id="defs202">
    <marker
       id="DistanceX"
       orient="auto"
       refX="0"
       refY="0"
       style="overflow:visible">
      <path
         d="M 3,-3 -3,3 M 0,-5 V 5"
         style="stroke:#000000;stroke-width:0.5"
         id="path190" />
    </marker>
    <pattern
       id="Hatch"
       patternUnits="userSpaceOnUse"
       width="8"
       height="8"
       x="0"
       y="0">
      <path
         d="M8 4 l-4,4"
         stroke="#000000"
         stroke-width="0.25"
         linecap="square"
         id="path193" />
      <path
         d="M6 2 l-4,4"
         stroke="#000000"
         stroke-width="0.25"
         linecap="square"
         id="path195" />
      <path
         d="M4 0 l-4,4"
         stroke="#000000"
         stroke-width="0.25"
         linecap="square"
         id="path197" />
    </pattern>
    <symbol
       id="*MODEL_SPACE" />
    <symbol
       id="*PAPER_SPACE" />
  </defs>
  <g
     inkscape:groupmode="layer"
     inkscape:label="0"
     id="g212">
    <path
       d="M 37.37813,48.378134 68.952088,16.804149 a 2.7455621,2.7455625 0 0 1 1.941404,-0.804148 h 21.355472 a 2.7455621,2.7455625 0 0 1 1.941366,4.686964 L 66.499206,48.378134 a 2.7455621,2.7455625 0 0 0 0,3.882804 l 27.691124,27.69115 a 2.7455621,2.7455625 0 0 1 -1.941366,4.686978 H 70.893492 A 2.7455621,2.7455625 0 0 1 68.952088,83.834913 L 37.37813,52.260938 a 2.7455621,2.7455625 0 0 1 0,-3.882804 z"
       style="fill:#d23c2a;stroke:#000000;stroke-width:0;stroke-dasharray:none;fill-opacity:1"
       id="path204" />
    <path
       d="M 50.50874,79.952088 35.408147,64.851512 a 2.7455621,2.7455625 0 0 0 -1.94141,-0.804169 H 28.337286 A 2.7455621,2.7455625 0 0 1 25.59172,61.30179 V 18.74556 A 2.7455621,2.7455625 0 0 0 22.846161,16.000001 H 7.7455592 A 2.7455621,2.7455625 0 0 0 5.0000007,18.74556 v 63.147943 a 2.7455621,2.7455625 0 0 0 2.7455585,2.745563 H 48.567336 a 2.7455621,2.7455625 0 0 0 1.941404,-4.686978 z"
       style="fill:#d23c2a;stroke:#000000;stroke-width:0;stroke-dasharray:none;fill-opacity:1"
       id="path208" />
    <path
       d="M 7.7455592,16.000001 A 2.7455621,2.7455625 0 0 0 5.0000007,18.74556"
       style="fill:none;stroke:#000000;stroke-width:0;stroke-dasharray:none"
       id="path210" />
  </g>
</svg>
